<?xml version="1.0" encoding="utf-8"?>
<svg xmlns="http://www.w3.org/2000/svg" viewBox="0 0 500 500" xmlns:bx="https://boxy-svg.com" width="500px" height="500px"><path d="M 230.87 190.37 L 245.88 190.37 L 245.88 280.38 L 305.87 280.38 L 305.87 190.37 L 320.88 190.37 L 320.88 280.38 Q 320.88 283.46 319.71 286.2 Q 318.54 288.95 316.49 291 Q 314.44 293.05 311.69 294.22 Q 308.94 295.4 305.87 295.4 L 245.88 295.4 Q 242.81 295.4 240.06 294.22 Q 237.31 293.05 235.26 291 Q 233.21 288.95 232.04 286.2 Q 230.87 283.46 230.87 280.38 Z" transform="matrix(4.274684, 0, 0, 3.587156, -929.282043, -630.016785)" style="fill: rgb(255, 255, 255); stroke-width: 50px; text-wrap-mode: nowrap;"/><defs><style>@import url(https://fonts.googleapis.com/css2?family=Aldrich%3Aital%2Cwght%400%2C400&amp;display=swap);</style></defs><path d="M 230.87 190.37 L 245.88 190.37 L 245.88 280.38 L 305.87 280.38 L 305.87 190.37 L 320.88 190.37 L 320.88 280.38 Q 320.88 283.46 319.71 286.2 Q 318.54 288.95 316.49 291 Q 314.44 293.05 311.69 294.22 Q 308.94 295.4 305.87 295.4 L 245.88 295.4 Q 242.81 295.4 240.06 294.22 Q 237.31 293.05 235.26 291 Q 233.21 288.95 232.04 286.2 Q 230.87 283.46 230.87 280.38 Z" transform="matrix(2.028031, 0, 0, 1.882281, -309.485474, -198.125931)" style="fill: rgb(201, 201, 201); stroke-width: 50px; text-wrap-mode: nowrap;"/></svg>